<?xml version="1.0" standalone="no"?>
<!DOCTYPE svg PUBLIC "-//W3C//DTD SVG 20010904//EN"
 "http://www.w3.org/TR/2001/REC-SVG-20010904/DTD/svg10.dtd">
<svg version="1.0" xmlns="http://www.w3.org/2000/svg"
 width="12rem" height="12rem" viewBox="0 0 1782.000000 772.000000"
 preserveAspectRatio="xMidYMid meet">

<g transform="translate(0.000000,772.000000) scale(0.100000,-0.100000)"
fill="#E81C23" stroke="none">
<path d="M1249 7301 l-24 -19 -5 -1744 c-4 -1298 -8 -1749 -17 -1768 -37 -80
-132 -135 -229 -133 -70 1 -116 21 -211 94 -36 27 -71 49 -79 49 -36 0 -54
-15 -306 -253 -145 -136 -148 -140 -148 -180 0 -37 8 -51 63 -117 238 -285
652 -399 1022 -283 337 106 586 373 672 722 15 60 17 233 20 1813 4 1909 7
1806 -52 1828 -16 6 -161 10 -355 10 -308 0 -329 -1 -351 -19z"/>
<path d="M2331 7307 c-13 -6 -34 -25 -45 -40 -20 -27 -21 -42 -24 -290 -3
-289 0 -307 61 -351 27 -20 44 -21 275 -24 292 -4 321 -1 368 40 68 60 69 65
69 340 0 355 20 338 -395 338 -206 0 -292 -4 -309 -13z"/>
<path d="M8590 7173 c-14 -9 -26 -17 -27 -18 -4 -2 -91 -335 -116 -445 -18
-78 -21 -112 -14 -132 l9 -28 260 0 261 0 29 33 c38 41 239 478 245 533 9 75
13 74 -325 74 -261 0 -301 -2 -322 -17z"/>
<path d="M4470 6329 c-188 -29 -340 -145 -450 -344 l-54 -99 -38 153 c-24 101
-46 167 -63 193 -43 64 -68 70 -294 66 -187 -3 -198 -4 -229 -26 -67 -48 -63
41 -60 -1272 l3 -1190 32 -31 c22 -23 45 -34 80 -40 67 -11 499 -11 547 1 22
5 53 23 70 39 l31 31 5 738 5 737 23 57 c31 76 103 171 159 209 76 53 145 72
243 67 143 -7 233 -66 297 -196 l38 -76 5 -765 c5 -822 3 -793 57 -829 24 -15
58 -17 323 -17 270 0 298 2 324 18 57 38 56 24 56 791 0 480 4 722 11 758 27
126 110 236 216 286 52 24 70 27 163 27 89 0 112 -4 151 -23 66 -33 119 -81
156 -143 64 -106 63 -99 63 -889 0 -452 4 -728 10 -751 20 -72 28 -74 355 -74
313 0 333 3 370 53 19 26 20 45 23 747 4 766 0 862 -43 1031 -97 382 -345 652
-682 741 -82 21 -121 26 -238 27 -203 1 -340 -37 -491 -135 -109 -71 -168
-130 -262 -259 -2 -2 -15 11 -30 30 -139 181 -312 295 -522 345 -83 19 -276
27 -360 14z"/>
<path d="M8425 6324 c-458 -71 -846 -406 -999 -865 -51 -153 -69 -268 -69
-444 1 -231 41 -396 144 -595 127 -244 346 -458 599 -585 90 -45 254 -99 370
-120 126 -24 352 -24 474 0 222 43 431 146 616 306 105 90 123 142 74 214 -34
51 -238 277 -272 302 -61 45 -101 35 -205 -50 -61 -49 -137 -85 -262 -123 -77
-23 -109 -27 -220 -28 -109 -1 -141 3 -200 22 -156 50 -265 137 -330 262 -18
34 -45 123 -45 147 0 9 187 13 813 15 861 4 840 2 906 50 40 28 50 80 51 249
0 180 -15 285 -61 415 -81 234 -258 466 -469 616 -257 183 -595 262 -915 212z
m405 -637 c82 -34 165 -99 222 -174 44 -57 98 -143 98 -156 0 -4 -229 -7 -510
-7 -401 0 -510 3 -510 13 0 28 65 123 128 186 77 78 126 112 209 147 53 22 69
24 178 21 103 -3 129 -7 185 -30z"/>
<path d="M11414 6326 c-250 -48 -428 -180 -570 -422 -9 -16 -17 4 -43 115 -36
150 -68 226 -109 256 -25 19 -43 20 -239 20 -199 0 -213 -1 -240 -21 -15 -12
-37 -36 -48 -55 -20 -33 -20 -55 -23 -1168 -2 -737 1 -1153 8 -1190 8 -44 17
-63 44 -88 44 -41 91 -46 391 -41 245 3 264 7 310 58 20 22 20 40 25 749 4
640 7 731 21 766 48 118 144 221 258 278 87 43 205 50 300 17 124 -42 228
-131 286 -246 l30 -59 6 -740 c3 -407 8 -749 13 -761 4 -11 22 -29 39 -40 30
-18 54 -19 327 -19 331 0 337 1 366 70 21 51 21 1467 -1 1605 -21 136 -49 230
-104 346 -63 131 -118 212 -206 299 -123 124 -284 216 -446 255 -110 27 -300
34 -395 16z"/>
<path d="M13910 6334 c-214 -39 -290 -63 -433 -136 -346 -177 -600 -530 -673
-938 -38 -207 -16 -482 52 -672 162 -450 567 -789 1044 -874 116 -20 345 -23
450 -5 225 39 446 146 635 308 111 94 129 145 79 219 -39 57 -240 280 -276
305 -56 40 -102 28 -198 -55 -89 -76 -298 -145 -465 -154 -209 -10 -395 71
-507 219 -38 50 -71 128 -83 192 l-7 36 813 3 c692 3 819 6 849 18 99 42 110
70 110 278 0 183 -15 289 -61 418 -65 185 -151 318 -303 469 -187 186 -386
296 -638 351 -70 15 -335 28 -388 18z m280 -625 c67 -15 160 -64 218 -115 47
-41 172 -212 172 -235 0 -5 -201 -9 -510 -9 -372 0 -510 3 -510 11 0 27 69
128 129 189 125 126 217 170 361 170 52 0 115 -5 140 -11z"/>
<path d="M15618 6289 c-24 -12 -46 -35 -59 -60 -19 -38 -20 -54 -17 -259 3
-203 5 -221 24 -247 47 -64 36 -63 602 -63 281 0 512 -2 512 -5 0 -3 -46 -59
-102 -123 -57 -65 -124 -142 -150 -172 -86 -102 -360 -425 -427 -504 -36 -43
-71 -84 -76 -90 -6 -6 -33 -38 -60 -71 -69 -83 -217 -254 -297 -343 -40 -44
-72 -90 -78 -111 -5 -20 -10 -108 -10 -197 0 -151 1 -163 25 -210 14 -28 40
-59 62 -74 l37 -25 915 -3 c1011 -3 971 -5 1025 59 41 48 48 95 44 303 -3 213
-10 240 -71 273 -29 16 -77 18 -554 21 -288 1 -523 5 -523 8 0 3 57 73 128
157 363 431 472 562 557 662 410 485 434 515 440 558 4 23 5 131 3 239 -3 215
-5 223 -72 272 -27 21 -36 21 -934 23 -887 2 -908 2 -944 -18z"/>
<path d="M2334 6283 c-18 -9 -41 -33 -53 -53 l-21 -38 2 -1191 3 -1191 31 -30
c17 -17 48 -35 70 -40 55 -13 492 -12 553 1 73 15 107 58 116 141 3 35 5 567
3 1183 l-3 1120 -23 32 c-13 18 -43 44 -66 58 l-43 25 -269 -1 c-223 0 -274
-3 -300 -16z"/>
<path d="M13874 3211 c-60 -28 -64 -46 -64 -328 0 -363 -20 -343 360 -343 294
0 299 1 350 72 l30 41 0 239 c0 351 21 332 -365 336 -247 2 -273 1 -311 -17z"/>
<path d="M4234 3176 c-17 -8 -34 -21 -38 -31 -3 -9 -6 -142 -6 -295 l0 -278
31 -26 31 -26 349 0 349 0 0 -1084 0 -1084 31 -26 31 -26 315 0 315 0 29 29
29 29 0 1081 0 1081 351 0 351 0 29 29 29 29 0 279 c0 153 -4 283 -8 289 -4 5
-18 18 -32 27 -23 16 -105 17 -1090 17 -871 -1 -1071 -3 -1096 -14z"/>
<path d="M7316 2799 c-227 -26 -431 -108 -619 -250 -238 -178 -406 -446 -473
-751 -24 -110 -29 -341 -10 -466 39 -254 156 -494 333 -682 235 -250 554 -390
893 -392 101 0 126 3 200 28 105 35 223 112 342 224 l88 82 10 -29 c57 -153
85 -214 106 -234 25 -24 28 -24 276 -27 l251 -3 39 26 c21 14 43 37 48 51 15
37 13 2296 -1 2326 -6 13 -25 34 -42 48 -30 24 -35 25 -227 28 -120 2 -206 -1
-222 -7 -40 -15 -61 -56 -115 -223 -26 -81 -50 -147 -53 -147 -3 0 -25 27 -50
60 -101 136 -253 255 -391 307 -104 38 -232 49 -383 31z m298 -665 c211 -54
387 -235 442 -454 25 -99 15 -273 -20 -365 -67 -176 -211 -311 -391 -368 -101
-32 -273 -31 -365 2 -239 84 -379 302 -380 587 0 185 58 332 181 457 78 78
156 125 247 146 63 15 219 12 286 -5z"/>
<path d="M10310 2799 c-223 -24 -433 -159 -555 -357 -21 -34 -41 -59 -45 -55
-4 4 -19 60 -34 123 -31 136 -64 212 -102 237 -25 16 -51 18 -230 18 -227 0
-237 -3 -275 -75 -18 -33 -19 -84 -19 -1160 0 -1051 1 -1127 18 -1160 32 -66
53 -70 354 -70 302 0 323 4 355 69 17 33 18 90 23 731 l5 695 29 59 c39 80
144 185 220 220 125 59 232 57 362 -5 73 -34 177 -139 214 -215 l25 -49 5
-715 c5 -668 6 -718 23 -743 10 -16 29 -32 43 -37 14 -6 149 -10 300 -10 230
0 280 3 305 16 60 31 59 15 59 801 0 730 -3 791 -40 935 -96 375 -387 665
-733 733 -90 17 -222 24 -307 14z"/>
<path d="M11690 2764 c-19 -8 -46 -31 -60 -51 -25 -36 -25 -39 -25 -242 0
-228 6 -256 59 -294 31 -22 32 -22 534 -25 276 -1 502 -6 502 -10 0 -4 -8 -14
-17 -23 -10 -8 -40 -41 -68 -74 -27 -32 -57 -66 -65 -75 -18 -18 -330 -384
-375 -439 -73 -90 -426 -504 -495 -581 -42 -47 -88 -100 -103 -118 l-27 -34 0
-185 c0 -211 6 -236 73 -284 l40 -29 894 0 c1000 0 936 -5 986 72 l27 42 0
209 c0 191 -2 212 -20 242 -38 61 -27 60 -582 65 l-506 5 80 95 c44 52 92 109
107 125 15 17 70 82 123 145 52 63 133 160 180 215 46 55 111 132 144 171 32
38 106 126 163 195 58 68 142 167 186 219 45 52 87 105 94 117 7 14 11 97 11
247 l0 224 -27 33 c-52 62 -12 59 -945 58 -725 0 -858 -2 -888 -15z"/>
<path d="M2755 2684 c-226 -35 -431 -205 -495 -412 -29 -91 -29 -223 -1 -313
19 -62 86 -178 110 -193 19 -12 13 -21 -53 -74 -126 -101 -197 -234 -216 -405
-38 -340 168 -625 526 -729 69 -20 101 -23 259 -23 197 1 283 14 403 61 213
85 332 249 367 507 7 51 9 52 70 37 61 -15 193 -12 259 5 188 49 340 204 400
404 21 73 20 95 -6 124 -20 21 -49 30 -197 58 l-173 34 -24 -28 c-13 -16 -24
-35 -24 -43 0 -32 -55 -94 -96 -110 -34 -13 -52 -14 -95 -5 -574 113 -611 119
-638 102 -12 -8 -80 -314 -81 -363 0 -28 33 -54 78 -62 22 -3 44 -11 47 -16
11 -17 -24 -113 -53 -146 -87 -99 -248 -131 -369 -73 -124 60 -182 241 -118
376 30 66 71 93 141 93 31 0 56 5 63 13 6 8 25 84 43 170 31 151 31 157 14
176 -10 11 -31 23 -48 26 -42 10 -98 62 -120 113 -25 56 -26 142 -1 184 32 55
67 73 142 73 103 0 144 -35 158 -135 12 -80 21 -83 223 -75 128 4 168 9 180
21 11 11 14 34 13 90 -8 268 -154 454 -405 519 -61 16 -229 27 -283 19z"/>
<path d="M13883 2390 c-78 -40 -73 29 -73 -1040 0 -1055 -3 -1002 65 -1034 27
-13 78 -16 299 -16 297 0 321 4 356 62 20 32 20 48 20 983 0 1068 7 976 -76
1033 l-39 27 -255 3 c-242 3 -257 2 -297 -18z"/>
</g>
</svg>
